{
  "source": "C:\\Users\\Peter\\Desktop\\stuff\\MIUN\\quantitative_research\\video_compression\\videos\\BVI-HD\\BVI-HD_CDVL_videos\\ORIG\\PlasmaSlowRandom_1920x1080_60fps.mp4",
  "output": "C:\\Users\\Peter\\Desktop\\stuff\\MIUN\\quantitative_research\\video_compression\\compressed_videos\\BVI-HD\\av1\\4\\PlasmaSlowRandom_1920x1080_60fps_av1.mkv",
  "codec": "av1",
  "ok": "Input #0, mov,mp4,m4a,3gp,3g2,mj2, from 'C:\\Users\\Peter\\Desktop\\stuff\\MIUN\\quantitative_research\\video_compression\\videos\\BVI-HD\\BVI-HD_CDVL_videos\\ORIG\\PlasmaSlowRandom_1920x1080_60fps.mp4':\n  Metadata:\n    major_brand     : isom\n    minor_version   : 512\n    compatible_brands: isomiso2avc1mp41\n    encoder         : Lavf54.28.101\n  Duration: 00:00:05.00, start: 0.000000, bitrate: 23030 kb/s\n  Stream #0:0[0x1](und): Video: h264 (High 4:4:4 Predictive) (avc1 / 0x31637661), yuv420p(progressive), 1920x1080, 23026 kb/s, 60 fps, 60 tbr, 60 tbn (default)\n    Metadata:\n      handler_name    : VideoHandler\n      vendor_id       : [0][0][0][0]\n[out#0/matroska @ 000001be1d764d00] Codec AVOption b:a (set bitrate (in bits/s)) has not been used for any stream. The most likely reason is either wrong type (e.g. a video option with no video streams) or that it is a private option of some decoder which was not actually used for any stream.\nStream mapping:\n  Stream #0:0 -> #0:0 (h264 (native) -> av1 (libsvtav1))\nPress [q] to stop, [?] for help\nSvt[info]: -------------------------------------------\nSvt[info]: SVT [version]:\tSVT-AV1 Encoder Lib v3.1.0-19-g6ecfe8ec\nSvt[info]: SVT [build]  :\tGCC 15.2.0\t 64 bit\nSvt[info]: LIB Build date: Aug 17 2025 11:37:13\nSvt[info]: -------------------------------------------\nSvt[info]: Level of Parallelism: 5\nSvt[info]: Number of PPCS 93\nSvt[info]: [asm level on system : up to avx2]\nSvt[info]: [asm level selected : up to avx2]\nSvt[info]: -------------------------------------------\nSvt[info]: SVT [config]: main profile\ttier (auto)\tlevel (auto)\nSvt[info]: SVT [config]: width / height / fps numerator / fps denominator \t\t: 1920 / 1080 / 60 / 1\nSvt[info]: SVT [config]: bit-depth / color format \t\t\t\t\t: 8 / YUV420\nSvt[info]: SVT [config]: preset / tune / pred struct \t\t\t\t\t: 4 / PSNR / random access\nSvt[info]: SVT [config]: gop size / mini-gop size / key-frame type \t\t\t: 321 / 16 / key frame\nSvt[info]: SVT [config]: BRC mode / target bitrate (kbps)\t\t\t\t: VBR / 4000 \nSvt[info]: SVT [config]: AQ mode / Variance Boost \t\t\t\t\t: 2 / 0\nSvt[info]: SVT [config]: sharpness / luminance-based QP bias \t\t\t\t: 0 / 0\nSvt[info]: SVT [config]: QP scale compress strength \t\t\t\t\t: 0\nSvt[info]: -------------------------------------------\nOutput #0, matroska, to 'C:\\Users\\Peter\\Desktop\\stuff\\MIUN\\quantitative_research\\video_compression\\compressed_videos\\BVI-HD\\av1\\4\\PlasmaSlowRandom_1920x1080_60fps_av1.mkv':\n  Metadata:\n    major_brand     : isom\n    minor_version   : 512\n    compatible_brands: isomiso2avc1mp41\n    encoder         : Lavf62.3.100\n  Stream #0:0(und): Video: av1 (AV01 / 0x31305641), yuv420p(tv, progressive), 1920x1080, q=2-31, 4000 kb/s, 60 fps, 1k tbn (default)\n    Metadata:\n      encoder         : Lavc62.11.100 libsvtav1\n      handler_name    : VideoHandler\n      vendor_id       : [0][0][0][0]\n    Side data:\n      cpb: bitrate max/min/avg: 0/0/4000000 buffer size: 4000000 vbv_delay: N/A\nframe=    0 fps=0.0 q=0.0 size=       0KiB time=N/A bitrate=N/A speed=N/A elapsed=0:00:01.02    \nframe=    0 fps=0.0 q=0.0 size=       0KiB time=N/A bitrate=N/A speed=N/A elapsed=0:00:01.55    \nframe=    1 fps=0.5 q=5.0 size=       1KiB time=00:00:00.00 bitrate=N/A speed=   0x elapsed=0:00:02.06    \nframe=    2 fps=0.8 q=14.0 size=       1KiB time=00:00:00.01 bitrate= 341.8kbits/s speed=0.00645x elapsed=0:00:02.58    \nframe=    6 fps=1.9 q=14.0 size=       1KiB time=00:00:00.08 bitrate=  68.4kbits/s speed=0.0268x elapsed=0:00:03.10    \nframe=   10 fps=2.7 q=14.0 size=       1KiB time=00:00:00.15 bitrate=  38.0kbits/s speed=0.0409x elapsed=0:00:03.66    \nframe=   15 fps=3.6 q=10.0 size=       1KiB time=00:00:00.23 bitrate=  24.4kbits/s speed=0.0559x elapsed=0:00:04.17    \nframe=   19 fps=4.0 q=10.0 size=       1KiB time=00:00:00.30 bitrate=  19.0kbits/s speed=0.0639x elapsed=0:00:04.69    \nframe=   23 fps=4.4 q=10.0 size=       1KiB time=00:00:00.36 bitrate=  15.5kbits/s speed=0.0704x elapsed=0:00:05.20    \nframe=   28 fps=4.9 q=10.0 size=       1KiB time=00:00:00.45 bitrate=  12.7kbits/s speed=0.0784x elapsed=0:00:05.73    \nframe=   34 fps=5.4 q=9.0 size=       1KiB time=00:00:00.55 bitrate=  10.4kbits/s speed=0.0878x elapsed=0:00:06.26    \nframe=   38 fps=5.6 q=9.0 size=       1KiB time=00:00:00.61 bitrate=   9.2kbits/s speed=0.0908x elapsed=0:00:06.79    \nframe=   42 fps=5.7 q=9.0 size=       1KiB time=00:00:00.68 bitrate=   8.3kbits/s speed=0.0934x elapsed=0:00:07.31    \nframe=   45 fps=5.7 q=9.0 size=       1KiB time=00:00:00.73 bitrate=   7.8kbits/s speed=0.0933x elapsed=0:00:07.85    \nframe=   50 fps=6.0 q=10.0 size=       1KiB time=00:00:00.80 bitrate=   7.1kbits/s speed=0.0953x elapsed=0:00:08.39    \nframe=   53 fps=5.9 q=9.0 size=       1KiB time=00:00:00.86 bitrate=   6.6kbits/s speed=0.0969x elapsed=0:00:08.94    \nframe=   55 fps=5.8 q=10.0 size=       1KiB time=00:00:00.90 bitrate=   6.3kbits/s speed=0.0947x elapsed=0:00:09.50    \nframe=   59 fps=5.9 q=10.0 size=       1KiB time=00:00:00.96 bitrate=   5.9kbits/s speed=0.0963x elapsed=0:00:10.03    \nframe=   65 fps=6.2 q=1.0 size=       1KiB time=00:00:01.06 bitrate=   5.3kbits/s speed=0.101x elapsed=0:00:10.55    \nframe=   69 fps=6.2 q=9.0 size=       1KiB time=00:00:01.13 bitrate=   5.0kbits/s speed=0.102x elapsed=0:00:11.07    \nframe=   73 fps=6.3 q=6.0 size=       1KiB time=00:00:01.20 bitrate=   4.7kbits/s speed=0.104x elapsed=0:00:11.58    \nframe=   78 fps=6.4 q=11.0 size=       1KiB time=00:00:01.28 bitrate=   4.4kbits/s speed=0.106x elapsed=0:00:12.11    \nframe=   83 fps=6.6 q=11.0 size=       1KiB time=00:00:01.36 bitrate=   4.2kbits/s speed=0.108x elapsed=0:00:12.63    \nframe=   86 fps=6.5 q=10.0 size=       1KiB time=00:00:01.41 bitrate=   4.0kbits/s speed=0.108x elapsed=0:00:13.15    \nframe=   90 fps=6.6 q=10.0 size=       1KiB time=00:00:01.48 bitrate=   3.8kbits/s speed=0.108x elapsed=0:00:13.67    \nframe=   97 fps=6.8 q=1.0 size=       1KiB time=00:00:01.60 bitrate=   3.6kbits/s speed=0.113x elapsed=0:00:14.20    \nframe=  100 fps=6.8 q=10.0 size=       1KiB time=00:00:01.65 bitrate=   3.5kbits/s speed=0.112x elapsed=0:00:14.72    \nframe=  103 fps=6.8 q=10.0 size=       1KiB time=00:00:01.70 bitrate=   3.4kbits/s speed=0.112x elapsed=0:00:15.23    \nframe=  107 fps=6.8 q=11.0 size=       1KiB time=00:00:01.76 bitrate=   3.2kbits/s speed=0.112x elapsed=0:00:15.75    \nframe=  113 fps=6.9 q=1.0 size=       1KiB time=00:00:01.86 bitrate=   3.1kbits/s speed=0.115x elapsed=0:00:16.26    \nframe=  116 fps=6.9 q=13.0 size=       1KiB time=00:00:01.91 bitrate=   3.0kbits/s speed=0.114x elapsed=0:00:16.79    \nframe=  119 fps=6.9 q=10.0 size=       1KiB time=00:00:01.96 bitrate=   2.9kbits/s speed=0.114x elapsed=0:00:17.31    \nframe=  123 fps=6.9 q=10.0 size=       1KiB time=00:00:02.03 bitrate=   2.8kbits/s speed=0.114x elapsed=0:00:17.84    \nframe=  129 fps=7.0 q=1.0 size=       1KiB time=00:00:02.13 bitrate=   2.7kbits/s speed=0.116x elapsed=0:00:18.36    \nframe=  133 fps=7.0 q=9.0 size=       1KiB time=00:00:02.20 bitrate=   2.6kbits/s speed=0.116x elapsed=0:00:18.90    \nframe=  136 fps=7.0 q=14.0 size=       1KiB time=00:00:02.25 bitrate=   2.5kbits/s speed=0.116x elapsed=0:00:19.43    \nframe=  140 fps=7.0 q=15.0 size=       1KiB time=00:00:02.31 bitrate=   2.5kbits/s speed=0.116x elapsed=0:00:19.94    \nframe=  146 fps=7.1 q=14.0 size=       1KiB time=00:00:02.41 bitrate=   2.4kbits/s speed=0.118x elapsed=0:00:20.48    \nframe=  149 fps=7.1 q=11.0 size=       1KiB time=00:00:02.46 bitrate=   2.3kbits/s speed=0.118x elapsed=0:00:20.98    \nframe=  152 fps=7.1 q=15.0 size=       1KiB time=00:00:02.50 bitrate=   2.3kbits/s speed=0.116x elapsed=0:00:21.51    \nframe=  156 fps=7.1 q=15.0 size=       1KiB time=00:00:02.58 bitrate=   2.2kbits/s speed=0.117x elapsed=0:00:22.06    \nframe=  163 fps=7.2 q=14.0 size=       1KiB time=00:00:02.70 bitrate=   2.1kbits/s speed=0.119x elapsed=0:00:22.60    \nframe=  166 fps=7.2 q=14.0 size=       1KiB time=00:00:02.75 bitrate=   2.1kbits/s speed=0.119x elapsed=0:00:23.11    \nframe=  170 fps=7.2 q=14.0 size=       1KiB time=00:00:02.81 bitrate=   2.0kbits/s speed=0.119x elapsed=0:00:23.62    \nframe=  175 fps=7.2 q=13.0 size=       1KiB time=00:00:02.90 bitrate=   2.0kbits/s speed=0.12x elapsed=0:00:24.16    \nframe=  179 fps=7.2 q=15.0 size=       1KiB time=00:00:02.96 bitrate=   1.9kbits/s speed=0.12x elapsed=0:00:24.69    \nframe=  183 fps=7.3 q=14.0 size=       1KiB time=00:00:03.03 bitrate=   1.9kbits/s speed=0.12x elapsed=0:00:25.22    \nframe=  188 fps=7.3 q=13.0 size=       1KiB time=00:00:03.11 bitrate=   1.8kbits/s speed=0.121x elapsed=0:00:25.75    \nframe=  195 fps=7.4 q=14.0 size=       1KiB time=00:00:03.21 bitrate=   1.8kbits/s speed=0.122x elapsed=0:00:26.28    \nframe=  198 fps=7.4 q=13.0 size=       1KiB time=00:00:03.28 bitrate=   1.7kbits/s speed=0.122x elapsed=0:00:26.82    \nframe=  202 fps=7.4 q=14.0 size=       1KiB time=00:00:03.35 bitrate=   1.7kbits/s speed=0.122x elapsed=0:00:27.35    \nframe=  209 fps=7.5 q=8.0 size=       1KiB time=00:00:03.46 bitrate=   1.6kbits/s speed=0.124x elapsed=0:00:27.87    \nframe=  213 fps=7.5 q=13.0 size=       1KiB time=00:00:03.53 bitrate=   1.6kbits/s speed=0.124x elapsed=0:00:28.39    \nframe=  217 fps=7.5 q=11.0 size=       1KiB time=00:00:03.60 bitrate=   1.6kbits/s speed=0.124x elapsed=0:00:28.91    \nframe=  223 fps=7.6 q=13.0 size=       1KiB time=00:00:03.70 bitrate=   1.5kbits/s speed=0.126x elapsed=0:00:29.44    \nframe=  229 fps=7.6 q=13.0 size=       1KiB time=00:00:03.80 bitrate=   1.5kbits/s speed=0.127x elapsed=0:00:29.95    \nframe=  233 fps=7.6 q=11.0 size=       1KiB time=00:00:03.86 bitrate=   1.5kbits/s speed=0.127x elapsed=0:00:30.49    \nframe=  239 fps=7.7 q=12.0 size=       1KiB time=00:00:03.96 bitrate=   1.4kbits/s speed=0.128x elapsed=0:00:31.01    \nframe=  247 fps=7.8 q=13.0 size=       1KiB time=00:00:04.10 bitrate=   1.4kbits/s speed=0.13x elapsed=0:00:31.54    \nframe=  251 fps=7.8 q=13.0 size=       1KiB time=00:00:04.16 bitrate=   1.4kbits/s speed=0.13x elapsed=0:00:32.05    \nframe=  257 fps=7.9 q=6.0 size=       1KiB time=00:00:04.26 bitrate=   1.3kbits/s speed=0.131x elapsed=0:00:32.57    \nframe=  263 fps=8.0 q=12.0 size=       1KiB time=00:00:04.36 bitrate=   1.3kbits/s speed=0.132x elapsed=0:00:33.07    \nframe=  269 fps=8.0 q=13.0 size=       1KiB time=00:00:04.46 bitrate=   1.3kbits/s speed=0.133x elapsed=0:00:33.60    \nframe=  275 fps=8.1 q=15.0 size=       1KiB time=00:00:04.56 bitrate=   1.2kbits/s speed=0.134x elapsed=0:00:34.13    \nframe=  281 fps=8.1 q=13.0 size=       1KiB time=00:00:04.66 bitrate=   1.2kbits/s speed=0.135x elapsed=0:00:34.64    \nframe=  287 fps=8.2 q=15.0 size=       1KiB time=00:00:04.76 bitrate=   1.2kbits/s speed=0.136x elapsed=0:00:35.16    \n[out#0/matroska @ 000001be1d764d00] video:2362KiB audio:0KiB subtitle:0KiB other streams:0KiB global headers:0KiB muxing overhead: 0.089061%\nframe=  300 fps=8.5 q=15.0 Lsize=    2364KiB time=00:00:04.98 bitrate=3886.1kbits/s speed=0.141x elapsed=0:00:35.43    \n",
  "seconds": 35.798816442489624,
  "probe_out": {}
}